# xmcd
#
# Track frame offsets: 
#        150
#        19787
#        37337
#        51595
#        66721
#        79739
#        98253
#        107013
#        124689
#        142438
#        168639
#        184813
#
# Disc length: 2934 seconds
#
# Revision: 0
# Processed by: cddbd v1.5.1PL2 Copyright (c) Steve Scherf et al.
# Submitted via: ExactAudioCopy v0.95a5
#
DISCID=b50b740c
DTITLE=Comet Bluegrass Allstars - A New Kind Of Lonesome
DYEAR=2005
DGENRE=Bluegrass
TTITLE0=A Shot The Sheriff
TTITLE1=A New Kind of Lonesome
TTITLE2=That's How I Got To Memphis
TTITLE3=Carmelita
TTITLE4=Snake in the Grass
TTITLE5=Me and Bobby McGee
TTITLE6=How Long
TTITLE7=Jeanie and Tommy
TTITLE8=I Got a Woman
TTITLE9=Summertime
TTITLE10=Panhandle Rag
TTITLE11=Midnight Moonlight
EXTD=
EXTT0=
EXTT1=
EXTT2=
EXTT3=
EXTT4=
EXTT5=
EXTT6=
EXTT7=
EXTT8=
EXTT9=
EXTT10=
EXTT11=
PLAYORDER=
